<svg style="min-width: 152px" width="152" height="28" viewBox="0 0 152 28" fill="none"
        xmlns="http://www.w3.org/2000/svg">
    <g clip-path="url(#clip0_1254_10578)">
        <path
        d="M0.335938 9.60823H2.70038V11.8545H2.7595C3.90231 10.1206 5.54757 9.25356 7.69527 9.25356C8.64105 9.25356 9.49816 9.45057 10.2666 9.84468C11.0351 10.2388 11.5769 10.9087 11.8922 11.8545C12.4045 11.0269 13.0744 10.3866 13.902 9.93334C14.7492 9.48013 15.6753 9.25356 16.6802 9.25356C17.4486 9.25356 18.1383 9.34224 18.7491 9.51957C19.3796 9.67723 19.9116 9.93334 20.3451 10.288C20.7983 10.6427 21.1431 11.1057 21.3795 11.6772C21.6356 12.2288 21.7637 12.8988 21.7637 13.6869V24.8885H19.2515V14.8692C19.2515 14.3963 19.2121 13.9529 19.1333 13.5392C19.0545 13.1254 18.9067 12.7707 18.69 12.4752C18.4732 12.1599 18.1678 11.9136 17.7737 11.7363C17.3994 11.5589 16.9067 11.4703 16.296 11.4703C15.0546 11.4703 14.0793 11.8249 13.37 12.5343C12.6606 13.2436 12.306 14.1894 12.306 15.3716V24.8885H9.79372V14.8692C9.79372 14.3766 9.74448 13.9234 9.64594 13.5096C9.56715 13.0958 9.41937 12.7412 9.20261 12.4456C8.98584 12.1304 8.69028 11.8939 8.31594 11.7363C7.96127 11.5589 7.49824 11.4703 6.92683 11.4703C6.19779 11.4703 5.56727 11.618 5.03527 11.9136C4.52297 12.2092 4.09935 12.5638 3.76438 12.9776C3.44913 13.3914 3.21268 13.8248 3.05505 14.278C2.91713 14.7115 2.84816 15.076 2.84816 15.3716V24.8885H0.335938V9.60823ZM25.681 9.60823H28.1932V24.8885H25.681V9.60823ZM32.0851 9.60823H34.4495V12.0318H34.5086C35.553 10.1797 37.2081 9.25356 39.474 9.25356C40.4789 9.25356 41.3163 9.39147 41.9862 9.66735C42.6561 9.94322 43.198 10.3275 43.6117 10.82C44.0255 11.3126 44.3112 11.9037 44.4689 12.5934C44.6462 13.2633 44.7349 14.012 44.7349 14.8396V24.8885H42.2226V14.544C42.2226 13.5983 41.9468 12.8495 41.3951 12.2978C40.8434 11.7461 40.0848 11.4703 39.1193 11.4703C38.3509 11.4703 37.681 11.5885 37.1095 11.8249C36.5578 12.0614 36.0948 12.3964 35.7204 12.8298C35.3461 13.2633 35.0603 13.7756 34.8633 14.3667C34.686 14.9381 34.5973 15.5686 34.5973 16.2583V24.8885H32.0851V9.60823ZM51.9956 9.60823H55.0398V11.8249H51.9956V21.3123C51.9956 21.6078 52.0153 21.8443 52.0547 22.0216C52.1138 22.1989 52.2123 22.3368 52.3502 22.4354C52.4882 22.5339 52.6753 22.6028 52.9118 22.6423C53.168 22.6619 53.4931 22.6718 53.8871 22.6718H55.0398V24.8885H53.1187C52.4685 24.8885 51.9069 24.8491 51.434 24.7703C50.9809 24.6717 50.6065 24.5043 50.3109 24.2678C50.0351 24.0314 49.8282 23.6964 49.6902 23.2629C49.5523 22.8295 49.4833 22.258 49.4833 21.5487V11.8249H46.8825V9.60823H49.4833V5.02712H51.9956V9.60823Z"
        fill="#ffffff" />
        <path
        d="M79.5215 4.78134H81.7195V14.7774H79.5215V4.78134ZM88.5787 11.1374C88.5787 10.8387 88.5507 10.554 88.4947 10.2834C88.4387 10.0034 88.3407 9.76068 88.2007 9.55535C88.0701 9.34068 87.8974 9.168 87.6827 9.03734C87.4681 8.90667 87.1974 8.84134 86.8707 8.84134C86.5441 8.84134 86.2687 8.90667 86.0447 9.03734C85.8207 9.168 85.6387 9.34068 85.4987 9.55535C85.3681 9.77001 85.2701 10.0174 85.2047 10.2974C85.1487 10.568 85.1207 10.8527 85.1207 11.1514C85.1207 11.4314 85.1534 11.7114 85.2187 11.9914C85.2841 12.2714 85.3867 12.5234 85.5267 12.7474C85.6761 12.962 85.8581 13.1394 86.0727 13.2794C86.2967 13.41 86.5627 13.4754 86.8707 13.4754C87.1974 13.4754 87.4681 13.41 87.6827 13.2794C87.9067 13.1487 88.0841 12.976 88.2147 12.7614C88.3454 12.5374 88.4387 12.2854 88.4947 12.0054C88.5507 11.7254 88.5787 11.436 88.5787 11.1374ZM88.6067 13.8534H88.5787C88.3454 14.2454 88.0374 14.53 87.6547 14.7074C87.2814 14.8754 86.8567 14.9594 86.3807 14.9594C85.8394 14.9594 85.3634 14.8567 84.9527 14.6514C84.5421 14.4367 84.2014 14.152 83.9307 13.7974C83.6694 13.4334 83.4687 13.018 83.3287 12.5514C83.1981 12.0847 83.1327 11.5994 83.1327 11.0954C83.1327 10.61 83.1981 10.1434 83.3287 9.69534C83.4687 9.238 83.6694 8.83667 83.9307 8.49134C84.2014 8.146 84.5374 7.87067 84.9387 7.66534C85.3401 7.45067 85.8067 7.34334 86.3387 7.34334C86.7681 7.34334 87.1741 7.43667 87.5567 7.62334C87.9487 7.80067 88.2567 8.06667 88.4807 8.42134H88.5087V4.78134H90.4967V14.7774H88.6067V13.8534ZM96.8714 10.3814C96.7781 9.87735 96.6101 9.49467 96.3674 9.23335C96.1341 8.972 95.7747 8.84134 95.2894 8.84134C94.9721 8.84134 94.7061 8.89734 94.4914 9.00934C94.2861 9.112 94.1181 9.24267 93.9874 9.40134C93.8661 9.56 93.7774 9.728 93.7214 9.90534C93.6747 10.0827 93.6467 10.2414 93.6374 10.3814H96.8714ZM93.6374 11.6414C93.6654 12.2854 93.8287 12.752 94.1274 13.0414C94.4261 13.3307 94.8554 13.4754 95.4154 13.4754C95.8167 13.4754 96.1621 13.3774 96.4514 13.1814C96.7407 12.976 96.9181 12.7614 96.9834 12.5374H98.7334C98.4534 13.4054 98.0241 14.026 97.4454 14.3994C96.8667 14.7727 96.1667 14.9594 95.3454 14.9594C94.7761 14.9594 94.2627 14.8707 93.8054 14.6934C93.3481 14.5067 92.9607 14.2454 92.6434 13.9094C92.3261 13.5734 92.0787 13.172 91.9014 12.7054C91.7334 12.2387 91.6494 11.7254 91.6494 11.1654C91.6494 10.624 91.7381 10.12 91.9154 9.65335C92.0927 9.18668 92.3447 8.78535 92.6714 8.44935C92.9981 8.104 93.3854 7.83334 93.8334 7.63734C94.2907 7.44134 94.7947 7.34334 95.3454 7.34334C95.9614 7.34334 96.4981 7.46467 96.9554 7.70734C97.4127 7.94067 97.7861 8.258 98.0754 8.65934C98.3741 9.06067 98.5887 9.518 98.7194 10.0314C98.8501 10.5447 98.8967 11.0814 98.8594 11.6414H93.6374ZM100.038 7.53934H101.928V8.54734H101.97C102.222 8.12734 102.548 7.824 102.95 7.63734C103.351 7.44134 103.762 7.34334 104.182 7.34334C104.714 7.34334 105.148 7.418 105.484 7.56734C105.829 7.70734 106.1 7.908 106.296 8.16934C106.492 8.42134 106.627 8.73401 106.702 9.10735C106.786 9.47135 106.828 9.87735 106.828 10.3254V14.7774H104.84V10.6894C104.84 10.092 104.746 9.64867 104.56 9.35934C104.373 9.06067 104.042 8.91134 103.566 8.91134C103.024 8.91134 102.632 9.07467 102.39 9.40134C102.147 9.71867 102.026 10.246 102.026 10.9834V14.7774H100.038V7.53934ZM110.857 7.53934H112.313V8.86934H110.857V12.4534C110.857 12.7894 110.913 13.0134 111.025 13.1254C111.137 13.2374 111.361 13.2934 111.697 13.2934C111.809 13.2934 111.916 13.2887 112.019 13.2794C112.121 13.27 112.219 13.256 112.313 13.2374V14.7774C112.145 14.8054 111.958 14.824 111.753 14.8334C111.547 14.8427 111.347 14.8474 111.151 14.8474C110.843 14.8474 110.549 14.824 110.269 14.7774C109.998 14.74 109.755 14.6607 109.541 14.5394C109.335 14.418 109.172 14.2454 109.051 14.0214C108.929 13.7974 108.869 13.5034 108.869 13.1394V8.86934H107.665V7.53934H108.869V5.36934H110.857V7.53934ZM115.302 6.41934H113.314V4.78134H115.302V6.41934ZM113.314 7.53934H115.302V14.7774H113.314V7.53934ZM119.388 7.53934H120.844V8.86934H119.388V12.4534C119.388 12.7894 119.444 13.0134 119.556 13.1254C119.668 13.2374 119.892 13.2934 120.228 13.2934C120.34 13.2934 120.447 13.2887 120.55 13.2794C120.653 13.27 120.751 13.256 120.844 13.2374V14.7774C120.676 14.8054 120.489 14.824 120.284 14.8334C120.079 14.8427 119.878 14.8474 119.682 14.8474C119.374 14.8474 119.08 14.824 118.8 14.7774C118.529 14.74 118.287 14.6607 118.072 14.5394C117.867 14.418 117.703 14.2454 117.582 14.0214C117.461 13.7974 117.4 13.5034 117.4 13.1394V8.86934H116.196V7.53934H117.4V5.36934H119.388V7.53934ZM125.36 15.6734C125.145 16.2614 124.847 16.6814 124.464 16.9334C124.081 17.1854 123.549 17.3114 122.868 17.3114C122.663 17.3114 122.457 17.302 122.252 17.2834C122.056 17.274 121.855 17.26 121.65 17.2414V15.6034C121.837 15.622 122.028 15.6407 122.224 15.6594C122.42 15.678 122.616 15.6827 122.812 15.6734C123.073 15.6454 123.265 15.5427 123.386 15.3654C123.517 15.188 123.582 14.992 123.582 14.7774C123.582 14.6187 123.554 14.4694 123.498 14.3294L120.964 7.53934H123.078L124.716 12.4954H124.744L126.326 7.53934H128.384L125.36 15.6734ZM79.5511 16.0032H81.1688L83.9688 23.4698L86.7813 16.0032H88.3991V24.8885H87.2791V17.4965H87.2542L84.4791 24.8885H83.4711L80.696 17.4965H80.6711V24.8885H79.5511V16.0032ZM95.8922 24.8636C95.7094 24.9715 95.4566 25.0254 95.1331 25.0254C94.8593 25.0254 94.6392 24.9507 94.4735 24.8014C94.3156 24.6437 94.2371 24.3907 94.2371 24.0423C93.9462 24.3907 93.6063 24.6437 93.2166 24.8014C92.8347 24.9507 92.4202 25.0254 91.9722 25.0254C91.6813 25.0254 91.4036 24.9922 91.1384 24.9258C90.881 24.8595 90.657 24.7557 90.4664 24.6147C90.2751 24.4737 90.1218 24.2912 90.006 24.0672C89.8978 23.8348 89.8442 23.5569 89.8442 23.2334C89.8442 22.8684 89.9064 22.5697 90.0308 22.3374C90.1553 22.1051 90.3171 21.9184 90.5162 21.7774C90.7231 21.628 90.9556 21.516 91.2131 21.4414C91.4783 21.3667 91.7482 21.3045 92.022 21.2547C92.3121 21.1966 92.5858 21.1552 92.8433 21.1303C93.1085 21.0971 93.3411 21.0556 93.5402 21.0058C93.7393 20.9477 93.8964 20.8689 94.0131 20.7694C94.129 20.6615 94.1873 20.508 94.1873 20.3089C94.1873 20.0766 94.1414 19.8899 94.0504 19.7489C93.9672 19.6079 93.8552 19.5 93.7144 19.4254C93.5814 19.3507 93.4282 19.3009 93.254 19.276C93.0875 19.2512 92.9218 19.2387 92.7562 19.2387C92.3082 19.2387 91.9348 19.3258 91.6362 19.5C91.3375 19.6659 91.1757 19.9854 91.1508 20.4583H90.0931C90.1094 20.06 90.1926 19.724 90.342 19.4503C90.4913 19.1765 90.6904 18.9566 90.9393 18.7907C91.1882 18.6165 91.4697 18.492 91.7855 18.4174C92.1091 18.3427 92.4528 18.3054 92.8184 18.3054C93.1085 18.3054 93.3947 18.3261 93.6771 18.3676C93.9672 18.4091 94.2285 18.4962 94.4611 18.6289C94.6928 18.7534 94.8795 18.9317 95.0211 19.164C95.1618 19.3964 95.2326 19.6992 95.2326 20.0725V23.3827C95.2326 23.6316 95.2451 23.8141 95.2699 23.9303C95.3026 24.0464 95.4022 24.1045 95.5686 24.1045C95.6596 24.1045 95.7677 24.0837 95.8922 24.0423V24.8636ZM94.1748 21.5658C94.0418 21.6654 93.8676 21.74 93.6522 21.7898C93.436 21.8313 93.2081 21.8686 92.9677 21.9018C92.7352 21.9267 92.4987 21.9599 92.2584 22.0014C92.0173 22.0346 91.8018 22.0926 91.6113 22.1756C91.42 22.2586 91.2628 22.3788 91.1384 22.5365C91.0217 22.6858 90.9642 22.8933 90.9642 23.1587C90.9642 23.3329 90.9968 23.4823 91.0637 23.6067C91.1384 23.7228 91.2294 23.8183 91.3375 23.8929C91.4534 23.9676 91.5864 24.0215 91.7357 24.0547C91.8851 24.0879 92.0422 24.1045 92.2086 24.1045C92.5571 24.1045 92.8557 24.0588 93.1046 23.9676C93.3535 23.868 93.5565 23.7477 93.7144 23.6067C93.8715 23.4574 93.9882 23.2997 94.0628 23.1338C94.1375 22.9596 94.1748 22.7978 94.1748 22.6485V21.5658ZM96.8761 18.4547H97.8716V19.4752H97.8965C98.3367 18.6953 99.0336 18.3054 99.9872 18.3054C100.41 18.3054 100.763 18.3635 101.045 18.4796C101.327 18.5957 101.555 18.7575 101.729 18.9649C101.904 19.1724 102.024 19.4213 102.09 19.7116C102.165 19.9937 102.202 20.3089 102.202 20.6574V24.8885H101.145V20.5329C101.145 20.1347 101.029 19.8195 100.796 19.5872C100.564 19.3548 100.245 19.2387 99.8378 19.2387C99.5143 19.2387 99.2327 19.2885 98.9916 19.388C98.7598 19.4876 98.5646 19.6286 98.4067 19.8112C98.2496 19.9937 98.1291 20.2094 98.0458 20.4583C97.9712 20.6988 97.9338 20.9644 97.9338 21.2547V24.8885H96.8761V18.4547ZM109.491 24.8636C109.308 24.9715 109.055 25.0254 108.732 25.0254C108.458 25.0254 108.238 24.9507 108.072 24.8014C107.914 24.6437 107.836 24.3907 107.836 24.0423C107.546 24.3907 107.205 24.6437 106.815 24.8014C106.433 24.9507 106.019 25.0254 105.571 25.0254C105.281 25.0254 105.002 24.9922 104.737 24.9258C104.48 24.8595 104.256 24.7557 104.065 24.6147C103.875 24.4737 103.721 24.2912 103.605 24.0672C103.497 23.8348 103.443 23.5569 103.443 23.2334C103.443 22.8684 103.505 22.5697 103.63 22.3374C103.754 22.1051 103.916 21.9184 104.115 21.7774C104.323 21.628 104.554 21.516 104.812 21.4414C105.077 21.3667 105.347 21.3045 105.621 21.2547C105.911 21.1966 106.185 21.1552 106.442 21.1303C106.707 21.0971 106.94 21.0556 107.139 21.0058C107.338 20.9477 107.496 20.8689 107.612 20.7694C107.728 20.6615 107.786 20.508 107.786 20.3089C107.786 20.0766 107.74 19.8899 107.649 19.7489C107.566 19.6079 107.454 19.5 107.313 19.4254C107.18 19.3507 107.027 19.3009 106.853 19.276C106.687 19.2512 106.521 19.2387 106.355 19.2387C105.907 19.2387 105.534 19.3258 105.235 19.5C104.936 19.6659 104.774 19.9854 104.75 20.4583H103.692C103.708 20.06 103.791 19.724 103.941 19.4503C104.09 19.1765 104.289 18.9566 104.538 18.7907C104.787 18.6165 105.069 18.492 105.384 18.4174C105.708 18.3427 106.052 18.3054 106.417 18.3054C106.707 18.3054 106.993 18.3261 107.276 18.3676C107.566 18.4091 107.827 18.4962 108.06 18.6289C108.292 18.7534 108.479 18.9317 108.62 19.164C108.761 19.3964 108.831 19.6992 108.831 20.0725V23.3827C108.831 23.6316 108.844 23.8141 108.869 23.9303C108.902 24.0464 109.002 24.1045 109.167 24.1045C109.258 24.1045 109.366 24.0837 109.491 24.0423V24.8636ZM107.774 21.5658C107.641 21.6654 107.466 21.74 107.251 21.7898C107.035 21.8313 106.807 21.8686 106.567 21.9018C106.334 21.9267 106.097 21.9599 105.857 22.0014C105.617 22.0346 105.401 22.0926 105.21 22.1756C105.019 22.2586 104.862 22.3788 104.737 22.5365C104.621 22.6858 104.563 22.8933 104.563 23.1587C104.563 23.3329 104.596 23.4823 104.662 23.6067C104.737 23.7228 104.828 23.8183 104.936 23.8929C105.052 23.9676 105.185 24.0215 105.334 24.0547C105.484 24.0879 105.642 24.1045 105.807 24.1045C106.156 24.1045 106.454 24.0588 106.703 23.9676C106.952 23.868 107.155 23.7477 107.313 23.6067C107.471 23.4574 107.587 23.2997 107.662 23.1338C107.736 22.9596 107.774 22.7978 107.774 22.6485V21.5658ZM116.026 24.3409C116.026 25.3946 115.785 26.1827 115.304 26.7054C114.823 27.228 114.067 27.4894 113.039 27.4894C112.74 27.4894 112.433 27.4562 112.118 27.3898C111.811 27.3235 111.529 27.2156 111.272 27.0663C111.023 26.9169 110.815 26.7219 110.65 26.4814C110.483 26.2408 110.392 25.9463 110.376 25.5978H111.434C111.442 25.7886 111.5 25.9504 111.608 26.0832C111.724 26.2159 111.861 26.3237 112.019 26.4067C112.184 26.4897 112.362 26.5477 112.554 26.5809C112.744 26.6224 112.927 26.6432 113.101 26.6432C113.45 26.6432 113.744 26.5809 113.985 26.4565C114.225 26.3404 114.424 26.1744 114.582 25.9587C114.739 25.7513 114.851 25.4983 114.918 25.1996C114.993 24.9009 115.03 24.5733 115.03 24.2165V23.7934H115.005C114.823 24.1916 114.545 24.4861 114.172 24.6769C113.806 24.8595 113.416 24.9507 113.002 24.9507C112.52 24.9507 112.101 24.8636 111.745 24.6894C111.388 24.5152 111.089 24.2828 110.849 23.9925C110.608 23.6938 110.426 23.3495 110.301 22.9596C110.185 22.5614 110.127 22.1424 110.127 21.7027C110.127 21.3211 110.177 20.9312 110.276 20.5329C110.376 20.1264 110.542 19.7614 110.774 19.4378C111.006 19.1059 111.313 18.8364 111.695 18.6289C112.076 18.4133 112.545 18.3054 113.101 18.3054C113.507 18.3054 113.881 18.3966 114.221 18.5792C114.561 18.7534 114.826 19.0188 115.018 19.3756H115.03V18.4547H116.026V24.3409ZM113.064 24.0298C113.412 24.0298 113.706 23.9593 113.948 23.8183C114.196 23.6689 114.396 23.4781 114.545 23.2458C114.694 23.0053 114.802 22.7356 114.868 22.4369C114.943 22.1383 114.98 21.8396 114.98 21.5409C114.98 21.2588 114.947 20.9809 114.881 20.7072C114.814 20.4334 114.707 20.1886 114.557 19.9729C114.416 19.7489 114.229 19.5706 113.997 19.4378C113.765 19.3051 113.482 19.2387 113.151 19.2387C112.81 19.2387 112.52 19.3051 112.28 19.4378C112.039 19.5623 111.84 19.7324 111.683 19.948C111.533 20.1637 111.421 20.4126 111.347 20.6947C111.28 20.9768 111.247 21.2713 111.247 21.5783C111.247 21.8686 111.276 22.159 111.334 22.4494C111.392 22.7397 111.491 23.0053 111.633 23.2458C111.774 23.4781 111.96 23.6689 112.193 23.8183C112.425 23.9593 112.716 24.0298 113.064 24.0298ZM122.089 21.0556C122.072 20.8067 122.014 20.5703 121.914 20.3463C121.823 20.1223 121.694 19.9315 121.529 19.7738C121.371 19.6079 121.18 19.4793 120.956 19.388C120.741 19.2885 120.5 19.2387 120.234 19.2387C119.961 19.2387 119.712 19.2885 119.488 19.388C119.272 19.4793 119.086 19.6079 118.928 19.7738C118.77 19.9397 118.645 20.1347 118.554 20.3587C118.463 20.5744 118.409 20.8067 118.393 21.0556H122.089ZM123.109 22.8476C122.968 23.5694 122.657 24.1128 122.176 24.4778C121.694 24.8428 121.089 25.0254 120.359 25.0254C119.845 25.0254 119.397 24.9424 119.015 24.7765C118.641 24.6106 118.326 24.3783 118.069 24.0796C117.812 23.7809 117.617 23.4242 117.484 23.0094C117.36 22.5946 117.289 22.1424 117.273 21.6529C117.273 21.1635 117.347 20.7155 117.497 20.3089C117.646 19.9024 117.854 19.5498 118.119 19.2512C118.393 18.9525 118.712 18.7202 119.077 18.5543C119.45 18.3884 119.857 18.3054 120.297 18.3054C120.869 18.3054 121.342 18.4257 121.715 18.6663C122.097 18.8986 122.4 19.1973 122.624 19.5623C122.856 19.9273 123.013 20.3255 123.097 20.7569C123.188 21.1884 123.225 21.599 123.209 21.9889H118.393C118.384 22.271 118.417 22.5406 118.492 22.7978C118.567 23.0467 118.687 23.2707 118.853 23.4698C119.019 23.6606 119.23 23.8141 119.488 23.9303C119.745 24.0464 120.048 24.1045 120.396 24.1045C120.844 24.1045 121.209 24.0008 121.491 23.7934C121.781 23.5859 121.973 23.2707 122.064 22.8476H123.109ZM124.305 18.4547H125.301V19.4005H125.326C125.807 18.6704 126.499 18.3054 127.404 18.3054C127.802 18.3054 128.163 18.3884 128.487 18.5543C128.81 18.7202 129.038 19.0023 129.171 19.4005C129.386 19.052 129.669 18.7824 130.017 18.5916C130.374 18.4008 130.764 18.3054 131.187 18.3054C131.511 18.3054 131.801 18.3427 132.058 18.4174C132.323 18.4837 132.547 18.5916 132.73 18.7409C132.921 18.8903 133.066 19.0853 133.166 19.3258C133.274 19.5581 133.327 19.8402 133.327 20.172V24.8885H132.27V20.6698C132.27 20.4707 132.253 20.284 132.22 20.1098C132.186 19.9356 132.124 19.7863 132.033 19.6618C131.942 19.5291 131.813 19.4254 131.647 19.3507C131.49 19.276 131.283 19.2387 131.025 19.2387C130.503 19.2387 130.092 19.388 129.793 19.6867C129.495 19.9854 129.345 20.3836 129.345 20.8814V24.8885H128.287V20.6698C128.287 20.4624 128.266 20.2716 128.225 20.0974C128.192 19.9232 128.13 19.7738 128.039 19.6494C127.948 19.5166 127.823 19.4171 127.665 19.3507C127.516 19.276 127.321 19.2387 127.08 19.2387C126.773 19.2387 126.508 19.3009 126.284 19.4254C126.068 19.5498 125.89 19.6992 125.749 19.8734C125.616 20.0476 125.516 20.2301 125.45 20.4209C125.392 20.6035 125.363 20.7569 125.363 20.8814V24.8885H124.305V18.4547ZM139.382 21.0556C139.365 20.8067 139.308 20.5703 139.208 20.3463C139.116 20.1223 138.988 19.9315 138.822 19.7738C138.665 19.6079 138.474 19.4793 138.25 19.388C138.034 19.2885 137.793 19.2387 137.528 19.2387C137.254 19.2387 137.006 19.2885 136.782 19.388C136.565 19.4793 136.379 19.6079 136.222 19.7738C136.064 19.9397 135.939 20.1347 135.848 20.3587C135.756 20.5744 135.703 20.8067 135.686 21.0556H139.382ZM140.402 22.8476C140.261 23.5694 139.95 24.1128 139.47 24.4778C138.988 24.8428 138.382 25.0254 137.653 25.0254C137.138 25.0254 136.69 24.9424 136.309 24.7765C135.935 24.6106 135.62 24.3783 135.363 24.0796C135.105 23.7809 134.91 23.4242 134.778 23.0094C134.654 22.5946 134.583 22.1424 134.566 21.6529C134.566 21.1635 134.641 20.7155 134.79 20.3089C134.94 19.9024 135.147 19.5498 135.413 19.2512C135.686 18.9525 136.005 18.7202 136.371 18.5543C136.744 18.3884 137.15 18.3054 137.59 18.3054C138.163 18.3054 138.636 18.4257 139.009 18.6663C139.39 18.8986 139.694 19.1973 139.918 19.5623C140.149 19.9273 140.307 20.3255 140.39 20.7569C140.481 21.1884 140.519 21.599 140.502 21.9889H135.686C135.678 22.271 135.711 22.5406 135.786 22.7978C135.861 23.0467 135.98 23.2707 136.147 23.4698C136.313 23.6606 136.524 23.8141 136.782 23.9303C137.038 24.0464 137.342 24.1045 137.69 24.1045C138.138 24.1045 138.503 24.0008 138.785 23.7934C139.075 23.5859 139.266 23.2707 139.358 22.8476H140.402ZM141.598 18.4547H142.594V19.4752H142.619C143.059 18.6953 143.756 18.3054 144.709 18.3054C145.133 18.3054 145.486 18.3635 145.767 18.4796C146.05 18.5957 146.277 18.7575 146.452 18.9649C146.626 19.1724 146.746 19.4213 146.813 19.7116C146.887 19.9937 146.925 20.3089 146.925 20.6574V24.8885H145.867V20.5329C145.867 20.1347 145.751 19.8195 145.518 19.5872C145.287 19.3548 144.967 19.2387 144.56 19.2387C144.237 19.2387 143.955 19.2885 143.714 19.388C143.482 19.4876 143.287 19.6286 143.129 19.8112C142.972 19.9937 142.851 20.2094 142.768 20.4583C142.693 20.6988 142.656 20.9644 142.656 21.2547V24.8885H141.598V18.4547ZM149.982 18.4547H151.264V19.388H149.982V23.3827C149.982 23.5072 149.991 23.6067 150.007 23.6814C150.032 23.756 150.073 23.8141 150.131 23.8556C150.19 23.8971 150.268 23.9261 150.368 23.9427C150.476 23.951 150.613 23.9552 150.778 23.9552H151.264V24.8885H150.455C150.181 24.8885 149.945 24.8719 149.746 24.8387C149.555 24.7973 149.397 24.7267 149.273 24.6272C149.157 24.5276 149.07 24.3866 149.011 24.204C148.953 24.0215 148.924 23.7809 148.924 23.4823V19.388H147.829V18.4547H148.924V16.5258H149.982V18.4547Z"
        fill="#ffffff" />
        <path d="M67.6666 4.66622H66.8888V24.8885H67.6666V4.66622Z" fill="#ffffff" />
        <path fill-rule="evenodd" clip-rule="evenodd"
        d="M26.3332 0.777344H23.3333V3.77734H26.3332V0.777344ZM25.7333 1.37734H23.9333V3.17734H25.7333V1.37734Z"
        fill="#ffffff" />
        <path fill-rule="evenodd" clip-rule="evenodd"
        d="M26.3332 4.77731H23.3333V7.77731H26.3332V4.77731ZM25.7333 5.37731H23.9333V7.17731H25.7333V5.37731Z"
        fill="#ffffff" />
        <path fill-rule="evenodd" clip-rule="evenodd"
        d="M30.3334 0.777344H27.3334V3.77734H30.3334V0.777344ZM29.7334 1.37734H27.9334V3.17734H29.7334V1.37734Z"
        fill="#ffffff" />
        <path d="M25.3331 1.77738H24.3332V2.77737H25.3331V1.77738Z" fill="#ffffff" />
        <path d="M25.3331 5.77735H24.3332V6.77735H25.3331V5.77735Z" fill="#ffffff" />
        <path d="M29.3334 1.77738H28.3334V2.77737H29.3334V1.77738Z" fill="#ffffff" />
        <path fill-rule="evenodd" clip-rule="evenodd"
        d="M28.8333 4.77731H27.3334V6.27731H28.8333V4.77731ZM28.3334 5.27731H27.8334V5.77731H28.3334V5.27731Z"
        fill="#ffffff" />
        <path d="M28.8334 6.7773H27.3334V7.7773H28.8334V6.7773Z" fill="#ffffff" />
        <path d="M30.3333 6.27732H29.3333V7.77732H30.3333V6.27732Z" fill="#ffffff" />
        <path d="M30.3333 4.77731H29.3333V5.7773H30.3333V4.77731Z" fill="#ffffff" />
    </g>
    <defs>
        <clipPath id="clip0_1254_10578">
        <rect width="152" height="28" fill="#ffffff" />
        </clipPath>
    </defs>
</svg>